<?xml version="1.0" encoding="UTF-8" standalone="no"?>
<svg xmlns="http://www.w3.org/2000/svg" xmlns:xlink="http://www.w3.org/1999/xlink" width="800" height="600" viewBox="0 0 800 600">
  <!-- Styles -->
  <style>
    .component {
      fill: #bbdefb;
      stroke: #1976d2;
      stroke-width: 2;
    }
    .mobile-client {
      fill: #c8e6c9;
      stroke: #388e3c;
      stroke-width: 2;
    }
    .server {
      fill: #ffecb3;
      stroke: #ffa000;
      stroke-width: 2;
    }
    .external {
      fill: #e1bee7;
      stroke: #8e24aa;
      stroke-width: 2;
    }
    .infrastructure {
      fill: #ffccbc;
      stroke: #e64a19;
      stroke-width: 2;
    }
    .label {
      font-family: Arial, sans-serif;
      font-size: 14px;
      text-anchor: middle;
    }
    .title {
      font-weight: bold;
      font-size: 16px;
    }
    .arrow {
      stroke: #424242;
      stroke-width: 1.5;
      fill: none;
      marker-end: url(#arrow-head);
    }
    .layer-label {
      font-family: Arial, sans-serif;
      font-size: 18px;
      font-weight: bold;
      text-anchor: middle;
    }
  </style>
  
  <!-- Markers -->
  <defs>
    <marker id="arrow-head" viewBox="0 0 10 10" refX="9" refY="5"
        markerWidth="6" markerHeight="6" orient="auto">
      <path d="M 0 0 L 10 5 L 0 10 z" fill="#424242"/>
    </marker>
  </defs>
  
  <!-- Mobile Client Layer -->
  <rect x="50" y="50" width="700" height="150" rx="5" ry="5" fill="#f5f5f5" stroke="#9e9e9e" stroke-width="1" opacity="0.7"/>
  <text x="400" y="80" class="layer-label">Mobile Client (Android)</text>
  
  <!-- Presentation Layer -->
  <rect x="80" y="100" width="160" height="80" rx="5" ry="5" class="mobile-client"/>
  <text x="160" y="125" class="label title">UI Components</text>
  <text x="160" y="145" class="label">Activities</text>
  <text x="160" y="165" class="label">Fragments</text>
  
  <!-- Business Layer -->
  <rect x="270" y="100" width="160" height="80" rx="5" ry="5" class="mobile-client"/>
  <text x="350" y="125" class="label title">ViewModels</text>
  <text x="350" y="145" class="label">Business Logic</text>
  <text x="350" y="165" class="label">LiveData</text>
  
  <!-- Data Layer -->
  <rect x="460" y="100" width="160" height="80" rx="5" ry="5" class="mobile-client"/>
  <text x="540" y="125" class="label title">Repositories</text>
  <text x="540" y="145" class="label">Local Data</text>
  <text x="540" y="165" class="label">Remote Data</text>
  
  <!-- Server Layer -->
  <rect x="50" y="230" width="700" height="150" rx="5" ry="5" fill="#f5f5f5" stroke="#9e9e9e" stroke-width="1" opacity="0.7"/>
  <text x="400" y="260" class="layer-label">Backend Server</text>
  
  <!-- API Layer -->
  <rect x="80" y="280" width="160" height="80" rx="5" ry="5" class="server"/>
  <text x="160" y="305" class="label title">RESTful API</text>
  <text x="160" y="325" class="label">Authentication</text>
  <text x="160" y="345" class="label">CRUD Operations</text>
  
  <!-- Business Logic Layer -->
  <rect x="270" y="280" width="160" height="80" rx="5" ry="5" class="server"/>
  <text x="350" y="305" class="label title">Business Logic</text>
  <text x="350" y="325" class="label">Services</text>
  <text x="350" y="345" class="label">Validation</text>
  
  <!-- Data Access Layer -->
  <rect x="460" y="280" width="160" height="80" rx="5" ry="5" class="server"/>
  <text x="540" y="305" class="label title">Data Access</text>
  <text x="540" y="325" class="label">Database</text>
  <text x="540" y="345" class="label">Storage</text>
  
  <!-- External Services Layer -->
  <rect x="50" y="410" width="700" height="150" rx="5" ry="5" fill="#f5f5f5" stroke="#9e9e9e" stroke-width="1" opacity="0.7"/>
  <text x="400" y="440" class="layer-label">External Services</text>
  
  <!-- Map Service -->
  <rect x="80" y="460" width="160" height="80" rx="5" ry="5" class="external"/>
  <text x="160" y="490" class="label title">Maps API</text>
  <text x="160" y="510" class="label">Geolocation</text>
  <text x="160" y="530" class="label">Maps Rendering</text>
  
  <!-- Storage Service -->
  <rect x="270" y="460" width="160" height="80" rx="5" ry="5" class="external"/>
  <text x="350" y="490" class="label title">Cloud Storage</text>
  <text x="350" y="510" class="label">Media Files</text>
  <text x="350" y="530" class="label">CDN</text>
  
  <!-- Notification Service -->
  <rect x="460" y="460" width="160" height="80" rx="5" ry="5" class="external"/>
  <text x="540" y="490" class="label title">Push Notifications</text>
  <text x="540" y="510" class="label">Firebase Cloud</text>
  <text x="540" y="530" class="label">Messaging</text>
  
  <!-- Connections -->
  <!-- UI to ViewModels -->
  <path d="M 240 140 L 270 140" class="arrow"/>
  
  <!-- ViewModels to Repositories -->
  <path d="M 430 140 L 460 140" class="arrow"/>
  
  <!-- Repositories to API -->
  <path d="M 540 180 L 540 210 L 160 210 L 160 280" class="arrow"/>
  
  <!-- API to Business Logic -->
  <path d="M 240 320 L 270 320" class="arrow"/>
  
  <!-- Business Logic to Data Access -->
  <path d="M 430 320 L 460 320" class="arrow"/>
  
  <!-- API to External Services -->
  <path d="M 160 360 L 160 410" class="arrow"/>
  
  <!-- Data Access to Storage -->
  <path d="M 540 360 L 540 390 L 350 390 L 350 460" class="arrow"/>
  
  <!-- Client to Notifications -->
  <path d="M 620 140 L 650 140 L 650 390 L 540 390 L 540 460" class="arrow"/>
  
  <!-- Legend -->
  <rect x="650" y="460" width="20" height="20" rx="3" ry="3" class="mobile-client"/>
  <text x="675" y="475" class="label" text-anchor="start">Mobile Client</text>
  
  <rect x="650" y="490" width="20" height="20" rx="3" ry="3" class="server"/>
  <text x="675" y="505" class="label" text-anchor="start">Backend Server</text>
  
  <rect x="650" y="520" width="20" height="20" rx="3" ry="3" class="external"/>
  <text x="675" y="535" class="label" text-anchor="start">External Service</text>
</svg>