<?xml version="1.0" encoding="UTF-8" standalone="no"?>
<svg xmlns="http://www.w3.org/2000/svg" xmlns:xlink="http://www.w3.org/1999/xlink" width="1000" height="800" viewBox="0 0 1000 800">  <!-- Background -->
  <rect width="1000" height="800" fill="white"/>
  
  <!-- Title -->
  <text x="500" y="30" font-family="Arial" font-size="20" font-weight="bold" text-anchor="middle">TripBook Class Diagram</text>
  
  <!-- Implementation Notes -->
  <rect x="30" y="20" width="300" height="60" rx="5" ry="5" fill="#e8f5e9" stroke="#388e3c" stroke-width="1"/>
  <text x="180" y="40" font-family="Arial" font-size="14" font-weight="bold" text-anchor="middle">Implementation Notes</text>
  <text x="180" y="60" font-family="Arial" font-size="12" text-anchor="middle">MVVM Architecture Pattern</text>
  <text x="180" y="75" font-family="Arial" font-size="12" text-anchor="middle">Uses Android Jetpack ViewModel + LiveData</text>
  
  <!-- Styles -->
  <style>
    .class-box {
      fill: #e3f2fd;
      stroke: #1976d2;
      stroke-width: 2;
    }
    .interface-box {
      fill: #fff8e1;
      stroke: #ff8f00;
      stroke-width: 2;
    }
    .service-box {
      fill: #e8f5e9;
      stroke: #388e3c;
      stroke-width: 2;
    }
    .viewmodel-box {
      fill: #f3e5f5;
      stroke: #7b1fa2;
      stroke-width: 2;
    }
    .class-name {
      font-family: Arial, sans-serif;
      font-size: 16px;
      font-weight: bold;
      text-anchor: middle;
    }
    .stereotype {
      font-family: Arial, sans-serif;
      font-size: 12px;
      font-style: italic;
      text-anchor: middle;
    }
    .attribute {
      font-family: Arial, sans-serif;
      font-size: 12px;
      text-anchor: start;
    }
    .method {
      font-family: Arial, sans-serif;
      font-size: 12px;
      text-anchor: start;
    }
    .divider {
      stroke: #1976d2;
      stroke-width: 1;
    }
    .interface-divider {
      stroke: #ff8f00;
      stroke-width: 1;
    }
    .service-divider {
      stroke: #388e3c;
      stroke-width: 1;
    }
    .viewmodel-divider {
      stroke: #7b1fa2;
      stroke-width: 1;
    }
    .relationship {
      stroke: #424242;
      stroke-width: 1.5;
      fill: none;
      marker-end: url(#arrow);
    }
    .inheritance {
      stroke: #424242;
      stroke-width: 1.5;
      fill: none;
      marker-end: url(#triangle);
    }
    .implementation {
      stroke: #424242;
      stroke-width: 1.5;
      stroke-dasharray: 5,3;
      fill: none;
      marker-end: url(#triangle);
    }
    .composition {
      stroke: #424242;
      stroke-width: 1.5;
      fill: none;
      marker-end: url(#diamond);
    }
    .cardinality {
      font-family: Arial, sans-serif;
      font-size: 12px;
      text-anchor: middle;
    }
  </style>
  
  <!-- Markers -->
  <defs>
    <marker id="arrow" viewBox="0 0 10 10" refX="9" refY="5"
        markerWidth="6" markerHeight="6" orient="auto">
      <path d="M 0 0 L 10 5 L 0 10 z" fill="#424242"/>
    </marker>
    <marker id="triangle" viewBox="0 0 10 10" refX="0" refY="5"
        markerWidth="6" markerHeight="6" orient="auto">
      <path d="M 0 0 L 10 5 L 0 10 L 0 0" fill="white" stroke="#424242" stroke-width="1"/>
    </marker>
    <marker id="diamond" viewBox="0 0 16 10" refX="15" refY="5"
        markerWidth="10" markerHeight="6" orient="auto">
      <path d="M 0 5 L 8 0 L 16 5 L 8 10 L 0 5" fill="black" stroke="#424242" stroke-width="1"/>
    </marker>
  </defs>
  
  <!-- Model Classes -->
  
  <!-- User Class -->
  <rect x="50" y="50" width="200" height="160" rx="5" ry="5" class="class-box"/>
  <text x="150" y="75" class="class-name">User</text>
  <text x="150" y="90" class="stereotype">«model»</text>
  <line x1="50" y1="100" x2="250" y2="100" class="divider"/>
  <text x="60" y="120" class="attribute">- userId: String</text>
  <text x="60" y="135" class="attribute">- username: String</text>
  <text x="60" y="150" class="attribute">- email: String</text>
  <text x="60" y="165" class="attribute">- profileImageUrl: String</text>
  <line x1="50" y1="175" x2="250" y2="175" class="divider"/>
  <text x="60" y="195" class="method">+ getProfile(): UserProfile</text>
  
  <!-- Post Class -->
  <rect x="400" y="50" width="200" height="190" rx="5" ry="5" class="class-box"/>
  <text x="500" y="75" class="class-name">Post</text>
  <text x="500" y="90" class="stereotype">«model»</text>
  <line x1="400" y1="100" x2="600" y2="100" class="divider"/>
  <text x="410" y="120" class="attribute">- postId: String</text>
  <text x="410" y="135" class="attribute">- userId: String</text>
  <text x="410" y="150" class="attribute">- title: String</text>
  <text x="410" y="165" class="attribute">- content: String</text>
  <text x="410" y="180" class="attribute">- locationData: LocationData</text>
  <text x="410" y="195" class="attribute">- media: List&lt;Media&gt;</text>
  <text x="410" y="210" class="attribute">- createdAt: Date</text>
  <line x1="400" y1="220" x2="600" y2="220" class="divider"/>
  <text x="410" y="240" class="method">+ addMedia(media: Media): void</text>
  
  <!-- Destination Class -->
  <rect x="750" y="50" width="200" height="140" rx="5" ry="5" class="class-box"/>
  <text x="850" y="75" class="class-name">Destination</text>
  <text x="850" y="90" class="stereotype">«model»</text>
  <line x1="750" y1="100" x2="950" y2="100" class="divider"/>
  <text x="760" y="120" class="attribute">- destinationId: String</text>
  <text x="760" y="135" class="attribute">- name: String</text>
  <text x="760" y="150" class="attribute">- country: String</text>
  <text x="760" y="165" class="attribute">- coordinates: GeoCoordinates</text>
  <line x1="750" y1="175" x2="950" y2="175" class="divider"/>
  <text x="760" y="195" class="method">+ getDetails(): DestinationDetails</text>
  
  <!-- Repositories -->
  
  <!-- UserRepository Interface -->
  <rect x="50" y="300" width="200" height="120" rx="5" ry="5" class="interface-box"/>
  <text x="150" y="325" class="class-name">UserRepository</text>
  <text x="150" y="340" class="stereotype">«interface»</text>
  <line x1="50" y1="350" x2="250" y2="350" class="interface-divider"/>
  <text x="60" y="370" class="method">+ getUser(id: String): User</text>
  <text x="60" y="385" class="method">+ saveUser(user: User): void</text>
  <text x="60" y="400" class="method">+ updateProfile(profile: UserProfile): void</text>
  
  <!-- PostRepository Interface -->
  <rect x="400" y="300" width="200" height="150" rx="5" ry="5" class="interface-box"/>
  <text x="500" y="325" class="class-name">PostRepository</text>
  <text x="500" y="340" class="stereotype">«interface»</text>
  <line x1="400" y1="350" x2="600" y2="350" class="interface-divider"/>
  <text x="410" y="370" class="method">+ getPosts(): List&lt;Post&gt;</text>
  <text x="410" y="385" class="method">+ getPostsByUser(userId: String): List&lt;Post&gt;</text>
  <text x="410" y="400" class="method">+ getPost(id: String): Post</text>
  <text x="410" y="415" class="method">+ savePost(post: Post): void</text>
  <text x="410" y="430" class="method">+ deletePost(id: String): void</text>
  
  <!-- DestinationRepository Interface -->
  <rect x="750" y="300" width="200" height="120" rx="5" ry="5" class="interface-box"/>
  <text x="850" y="325" class="class-name">DestinationRepository</text>
  <text x="850" y="340" class="stereotype">«interface»</text>
  <line x1="750" y1="350" x2="950" y2="350" class="interface-divider"/>
  <text x="760" y="370" class="method">+ getDestinations(): List&lt;Destination&gt;</text>
  <text x="760" y="385" class="method">+ getDestination(id: String): Destination</text>
  <text x="760" y="400" class="method">+ getNearbyDestinations(coords): List&lt;Destination&gt;</text>
  
  <!-- ViewModels -->
  
  <!-- UserViewModel -->
  <rect x="50" y="500" width="200" height="120" rx="5" ry="5" class="viewmodel-box"/>
  <text x="150" y="525" class="class-name">UserViewModel</text>
  <text x="150" y="540" class="stereotype">«viewmodel»</text>
  <line x1="50" y1="550" x2="250" y2="550" class="viewmodel-divider"/>
  <text x="60" y="570" class="attribute">- userRepository: UserRepository</text>
  <line x1="50" y1="580" x2="250" y2="580" class="viewmodel-divider"/>
  <text x="60" y="600" class="method">+ login(credentials): LiveData&lt;User&gt;</text>
  <text x="60" y="615" class="method">+ register(userData): LiveData&lt;User&gt;</text>
  
  <!-- PostViewModel -->
  <rect x="400" y="500" width="200" height="130" rx="5" ry="5" class="viewmodel-box"/>
  <text x="500" y="525" class="class-name">PostViewModel</text>
  <text x="500" y="540" class="stereotype">«viewmodel»</text>
  <line x1="400" y1="550" x2="600" y2="550" class="viewmodel-divider"/>
  <text x="410" y="570" class="attribute">- postRepository: PostRepository</text>
  <line x1="400" y1="580" x2="600" y2="580" class="viewmodel-divider"/>
  <text x="410" y="600" class="method">+ getPosts(): LiveData&lt;List&lt;Post&gt;&gt;</text>
  <text x="410" y="615" class="method">+ createPost(post): LiveData&lt;Post&gt;</text>
  <text x="410" y="630" class="method">+ deletePost(id): LiveData&lt;Boolean&gt;</text>
  
  <!-- DiscoveryViewModel -->
  <rect x="750" y="500" width="200" height="130" rx="5" ry="5" class="viewmodel-box"/>
  <text x="850" y="525" class="class-name">DiscoveryViewModel</text>
  <text x="850" y="540" class="stereotype">«viewmodel»</text>
  <line x1="750" y1="550" x2="950" y2="550" class="viewmodel-divider"/>
  <text x="760" y="570" class="attribute">- destinationRepo: DestinationRepository</text>
  <line x1="750" y1="580" x2="950" y2="580" class="viewmodel-divider"/>
  <text x="760" y="600" class="method">+ getDestinations(): LiveData&lt;List&lt;Destination&gt;&gt;</text>
  <text x="760" y="615" class="method">+ searchDestinations(query): LiveData&lt;List&lt;Destination&gt;&gt;</text>
  <text x="760" y="630" class="method">+ getNearbyDestinations(): LiveData&lt;List&lt;Destination&gt;&gt;</text>
  
  <!-- Services -->
  
  <!-- LocationService -->
  <rect x="225" y="700" width="200" height="100" rx="5" ry="5" class="service-box"/>
  <text x="325" y="725" class="class-name">LocationService</text>
  <text x="325" y="740" class="stereotype">«service»</text>
  <line x1="225" y1="750" x2="425" y2="750" class="service-divider"/>
  <text x="235" y="770" class="method">+ getCurrentLocation(): GeoCoordinates</text>
  <text x="235" y="785" class="method">+ getLocationName(coords): String</text>
  
  <!-- MediaService -->
  <rect x="575" y="700" width="200" height="100" rx="5" ry="5" class="service-box"/>
  <text x="675" y="725" class="class-name">MediaService</text>
  <text x="675" y="740" class="stereotype">«service»</text>
  <line x1="575" y1="750" x2="775" y2="750" class="service-divider"/>
  <text x="585" y="770" class="method">+ uploadMedia(file): String</text>
  <text x="585" y="785" class="method">+ getMediaUrl(id): String</text>
  
  <!-- Relationships -->
  
  <!-- User to UserRepository -->
  <path d="M 150 210 L 150 300" class="relationship"/>
  <text x="160" y="255" class="cardinality">1</text>
  <text x="160" y="295" class="cardinality">uses</text>
  
  <!-- Post to PostRepository -->
  <path d="M 500 240 L 500 300" class="relationship"/>
  <text x="510" y="270" class="cardinality">1</text>
  <text x="510" y="295" class="cardinality">uses</text>
  
  <!-- Destination to DestinationRepository -->
  <path d="M 850 190 L 850 300" class="relationship"/>
  <text x="860" y="245" class="cardinality">1</text>
  <text x="860" y="295" class="cardinality">uses</text>
  
  <!-- Post references Destination -->
  <path d="M 600 120 L 750 120" class="relationship"/>
  <text x="620" y="110" class="cardinality">*</text>
  <text x="730" y="110" class="cardinality">1</text>
  
  <!-- UserViewModel to UserRepository -->
  <path d="M 150 500 L 150 420" class="implementation"/>
  
  <!-- PostViewModel to PostRepository -->
  <path d="M 500 500 L 500 450" class="implementation"/>
  
  <!-- DiscoveryViewModel to DestinationRepository -->
  <path d="M 850 500 L 850 420" class="implementation"/>
  
  <!-- PostViewModel uses LocationService -->
  <path d="M 400 565 L 325 700" class="relationship"/>
  
  <!-- PostViewModel uses MediaService -->
  <path d="M 600 565 L 675 700" class="relationship"/>
</svg>